
<svg width="35" height="35" viewBox="0 0 35 35" fill="none" xmlns="http://www.w3.org/2000/svg">
<path d="M17.5039 8.52454C12.5379 8.52454 8.53235 12.5301 8.53235 17.4961C8.53235 22.4621 12.5379 26.4677 17.5039 26.4677C22.4699 26.4677 26.4755 22.4621 26.4755 17.4961C26.4755 12.5301 22.4699 8.52454 17.5039 8.52454ZM17.5039 23.3288C14.2948 23.3288 11.6712 20.7131 11.6712 17.4961C11.6712 14.2791 14.2869 11.6634 17.5039 11.6634C20.7209 11.6634 23.3366 14.2791 23.3366 17.4961C23.3366 20.7131 20.7131 23.3288 17.5039 23.3288V23.3288ZM28.935 8.15756C28.935 9.32097 27.9981 10.2501 26.8424 10.2501C25.679 10.2501 24.7499 9.31316 24.7499 8.15756C24.7499 7.00195 25.6868 6.06498 26.8424 6.06498C27.9981 6.06498 28.935 7.00195 28.935 8.15756ZM34.877 10.2814C34.7443 7.47825 34.104 4.99526 32.0505 2.94953C30.0047 0.903792 27.5218 0.263525 24.7186 0.122978C21.8296 -0.0409928 13.1704 -0.0409928 10.2814 0.122978C7.48606 0.255717 5.00307 0.895984 2.94953 2.94172C0.895985 4.98745 0.263525 7.47044 0.122978 10.2736C-0.0409927 13.1626 -0.0409927 21.8218 0.122978 24.7108C0.255717 27.5139 0.895985 29.9969 2.94953 32.0427C5.00307 34.0884 7.47825 34.7287 10.2814 34.8692C13.1704 35.0332 21.8296 35.0332 24.7186 34.8692C27.5218 34.7365 30.0047 34.0962 32.0505 32.0427C34.0962 29.9969 34.7365 27.5139 34.877 24.7108C35.041 21.8218 35.041 13.1704 34.877 10.2814V10.2814ZM31.1447 27.8107C30.5357 29.3411 29.3567 30.5201 27.8185 31.1369C25.5151 32.0505 20.0494 31.8397 17.5039 31.8397C14.9585 31.8397 9.48494 32.0427 7.18935 31.1369C5.65895 30.5279 4.47992 29.3489 3.86308 27.8107C2.94953 25.5073 3.16035 20.0416 3.16035 17.4961C3.16035 14.9506 2.95733 9.47713 3.86308 7.18154C4.47211 5.65114 5.65114 4.47211 7.18935 3.85527C9.49275 2.94172 14.9585 3.15254 17.5039 3.15254C20.0494 3.15254 25.5229 2.94953 27.8185 3.85527C29.3489 4.46431 30.5279 5.64334 31.1447 7.18154C32.0583 9.48494 31.8475 14.9506 31.8475 17.4961C31.8475 20.0416 32.0583 25.5151 31.1447 27.8107Z" fill="#1D1D1B"/>
</svg>
