<svg width="50" height="50" viewBox="0 0 50 50" fill="none" xmlns="http://www.w3.org/2000/svg">
<circle cx="25" cy="25" r="25" fill="white"/>
<path d="M34.7724 39.6724C34.7724 41.0214 33.6784 42.1154 32.3293 42.1154H17.6711C16.3221 42.1154 15.228 41.0214 15.228 39.6724C15.228 38.3234 16.3221 37.2293 17.6711 37.2293H22.5572V14.9213L19.0262 17.2727C17.9016 18.0285 16.3877 17.7155 15.6384 16.6009C14.8904 15.4786 15.1934 13.9593 16.3159 13.2111L23.6451 8.32504C24.3954 7.82521 25.359 7.77635 26.1523 8.20335C26.947 8.62814 27.4433 9.45648 27.4433 10.3566V37.2301H32.3293C33.6807 37.2293 34.7724 38.3211 34.7724 39.6724Z" fill="black"/>
</svg>
