<svg width="50" height="50" viewBox="0 0 50 50" fill="none" xmlns="http://www.w3.org/2000/svg">
<circle cx="25" cy="25" r="25" fill="white"/>
<path d="M37.2875 39.6405C37.2875 40.9911 36.1922 42.0864 34.8416 42.0864H15.2751C14.2754 42.0864 13.3773 41.4785 13.0051 40.5508C12.6337 39.6245 12.863 38.5636 13.5855 37.8734L28.3827 23.7259C30.7796 21.42 30.9776 17.6114 28.8269 15.0586C27.6873 13.7065 26.0861 12.9093 24.3198 12.813C22.5667 12.7236 20.8776 13.3404 19.5958 14.5633L16.9199 16.9938C15.9202 17.9041 14.3725 17.8262 13.4652 16.8278C12.557 15.8321 12.6311 14.2805 13.6303 13.371L16.2634 10.9787C18.4547 8.88902 21.4906 7.76012 24.5868 7.93056C27.6693 8.09779 30.5783 9.54786 32.5663 11.9073C36.3726 16.4206 36.021 23.1657 31.7676 27.2548L21.3729 37.1909H34.8416C36.1945 37.1947 37.2875 38.2877 37.2875 39.6405Z" fill="black"/>
</svg>
