<svg width="26" height="24" viewBox="0 0 26 24" fill="none" xmlns="http://www.w3.org/2000/svg">
<path d="M25.4633 18.1368L24.3279 22.8592C24.1684 23.5268 23.5569 23.9938 22.8405 23.9938C10.5205 23.9929 0.5 14.3795 0.5 2.55941C0.5 1.87261 0.986814 1.28512 1.68273 1.13286L6.60507 0.0436145C7.32193 -0.115766 8.05443 0.241224 8.35231 0.892521L10.624 5.97565C10.8896 6.57439 10.7104 7.27197 10.1855 7.68331L7.55633 9.7086C9.21567 12.9515 11.964 15.5882 15.3452 17.181L17.4977 14.6606C17.922 14.1555 18.6545 13.9808 19.2786 14.2401L24.577 16.419C25.2143 16.7407 25.6293 17.4528 25.4633 18.1368Z" fill="white"/>
</svg>
